<?xml version="1.0" encoding="iso-8859-1"?>
<!-- Uploaded to: SVG Repo, www.svgrepo.com, Generator: SVG Repo Mixer Tools -->
<svg version="1.1" id="Layer_1" xmlns="http://www.w3.org/2000/svg" xmlns:xlink="http://www.w3.org/1999/xlink" 
	 viewBox="0 0 512 512" xml:space="preserve">
<polyline style="fill:#8A8791;" points="72.39,104.731 50.173,127.005 68.138,144.874 117.339,95.547 99.374,77.679 92.02,85.052 
	"/>
<polyline style="fill:#787780;" points="439.612,104.731 461.831,127.005 443.865,144.874 394.664,95.547 412.63,77.679 
	419.984,85.052 "/>
<rect x="222.465" y="45.239" style="fill:#8A8791;" width="66.961" height="55.372"/>
<g>
	<rect x="255.389" y="45.239" style="fill:#787780;" width="34.039" height="55.372"/>
	<polygon style="fill:#787780;" points="380.301,141.093 410.2,111.357 428.094,129.296 398.196,159.033 	"/>
</g>
<g>
	<polygon style="fill:#8A8791;" points="131.701,141.093 101.802,111.357 83.908,129.296 113.806,159.033 	"/>
	<path style="fill:#8A8791;" d="M457.762,302.127c0,111.304-90.357,201.528-201.817,201.528
		c-111.449,0-201.806-90.223-201.806-201.528c0-111.293,90.357-201.517,201.806-201.517
		C367.406,100.61,457.762,190.834,457.762,302.127z"/>
</g>
<path style="fill:#787780;" d="M457.762,302.127c0,111.304-90.357,201.528-201.817,201.528V100.61
	C367.406,100.61,457.762,190.834,457.762,302.127z"/>
<path style="fill:#FFFFFF;" d="M417.326,302.127c0,88.999-72.259,161.146-161.38,161.146S94.576,391.126,94.576,302.127
	c0-88.988,72.248-161.135,161.369-161.135S417.326,213.139,417.326,302.127z"/>
<path style="fill:#F5F5F5;" d="M417.326,302.127c0,88.999-72.259,161.146-161.38,161.146V140.991
	C345.067,140.991,417.326,213.139,417.326,302.127z"/>
<rect x="186.681" y="8.346" style="fill:#8A8791;" width="138.552" height="36.897"/>
<rect x="255.077" y="8.346" style="fill:#787780;" width="70.144" height="36.897"/>
<g>
	<path style="fill:#3C3A41;" d="M408.045,293.786h-32.221c-4.61,0-8.348,3.738-8.348,8.348c0,4.61,3.738,8.348,8.348,8.348h32.234
		c-1.995,36.811-17.269,72.445-44.292,99.467c-27.591,27.591-63.241,42.332-99.467,44.247v-32.363c0-4.61-3.738-8.348-8.348-8.348
		s-8.348,3.738-8.348,8.348v32.336c-36.148-2.021-71.728-16.813-99.301-44.386c-27.573-27.575-42.365-63.153-44.386-99.301h32.163
		c4.61,0,8.348-3.738,8.348-8.348c0-4.61-3.738-8.348-8.348-8.348h-32.189c1.914-36.226,16.657-71.876,44.248-99.467
		c26.807-26.808,61.865-42.366,99.467-44.326v35.77c0,4.61,3.738,8.348,8.348,8.348s8.348-3.738,8.348-8.348V150.02
		c37.515,2.069,72.509,17.67,99.301,44.463c3.26,3.26,8.546,3.26,11.805,0c3.26-3.26,3.26-8.546,0-11.805
		c-31.95-31.95-74.413-49.564-119.565-49.597c-0.045,0-0.082,0-0.126,0c-45.108,0-87.505,17.554-119.383,49.432
		c-32.492,32.492-48.926,75.053-49.333,117.759c-0.137,0.599-0.216,1.22-0.216,1.861c0,0.649,0.081,1.277,0.221,1.883
		c0.529,42.622,17.021,85.101,49.493,117.572c33.012,33.012,76.357,49.52,119.69,49.518c43.247-0.002,86.483-16.451,119.385-49.352
		c31.861-31.861,49.008-74.506,49.395-118.043c0.098-0.511,0.154-1.037,0.154-1.577c0-0.516-0.053-1.02-0.144-1.509
		c-0.186-19.836-3.847-39.806-11.207-58.982c-1.652-4.304-6.481-6.453-10.784-4.802c-4.304,1.652-6.455,6.481-4.802,10.785
		C403.95,262.655,407.182,278.225,408.045,293.786z"/>
	<path style="fill:#3C3A41;" d="M437.954,150.771c1.631,1.635,3.77,2.453,5.91,2.453c2.129,0,4.258-0.809,5.887-2.429l17.966-17.868
		c1.572-1.563,2.458-3.686,2.461-5.902c0.004-2.216-0.873-4.343-2.438-5.912l-22.219-22.275c-3.256-3.265-8.54-3.271-11.805-0.016
		s-3.271,8.541-0.016,11.805l16.315,16.356l-6.128,6.095l-37.41-37.506l6.128-6.095l1.467,1.471
		c3.256,3.263,8.542,3.27,11.806,0.014c3.263-3.256,3.27-8.541,0.014-11.806l-7.354-7.373c-3.253-3.259-8.531-3.27-11.797-0.023
		l-17.966,17.868c-1.572,1.563-2.458,3.686-2.461,5.902c-0.004,2.216,0.873,4.343,2.438,5.912l9.75,9.775l-20.371,20.26
		c-23.619-16.912-50.875-29.062-80.352-35.031V53.589h27.443c4.61,0,8.348-3.738,8.348-8.348V8.348c0-4.61-3.738-8.348-8.348-8.348
		H186.676c-4.61,0-8.348,3.738-8.348,8.348v36.893c0,4.61,3.738,8.348,8.348,8.348h27.444v14.71c0,4.61,3.738,8.348,8.348,8.348
		c4.61,0,8.348-3.738,8.348-8.348v-14.71h50.27v40.185c-8.244-0.986-16.629-1.507-25.135-1.507
		c-45.508,0-87.68,14.525-122.123,39.168L113.5,111.219l9.749-9.775c1.565-1.569,2.442-3.695,2.438-5.912
		c-0.004-2.216-0.889-4.339-2.461-5.902l-17.967-17.867c-3.265-3.247-8.544-3.238-11.797,0.023l-7.354,7.373
		c-3.256,3.265-3.249,8.549,0.016,11.805c3.263,3.256,8.549,3.249,11.805-0.016l1.467-1.47l6.127,6.094l-37.411,37.506l-6.128-6.095
		l16.315-16.356c3.256-3.265,3.249-8.549-0.016-11.805c-3.265-3.257-8.55-3.25-11.805,0.016L44.26,121.112
		c-1.565,1.569-2.442,3.695-2.438,5.912c0.004,2.216,0.889,4.339,2.461,5.902l17.966,17.868c1.628,1.619,3.757,2.429,5.887,2.429
		c2.139,0,4.28-0.818,5.91-2.453l9.767-9.791l18.364,18.265c-34.963,37.495-56.389,87.737-56.389,142.89
		C45.791,417.854,140.068,512,255.95,512s210.159-94.146,210.159-209.867c0-55.127-21.406-105.347-56.34-142.837l18.418-18.317
		L437.954,150.771z M222.467,36.893h-27.444V16.696h121.853v20.197h-27.443H222.467z M101.826,123.155l18.718,18.617
		c-2.208,1.862-4.381,3.764-6.51,5.714l-18.311-18.212L101.826,123.155z M255.95,495.304c-106.676,0-193.464-86.656-193.464-193.171
		s86.787-193.171,193.464-193.171s193.464,86.656,193.464,193.171C449.414,408.648,362.626,495.304,255.95,495.304z
		 M397.919,147.536c-2.128-1.951-4.301-3.854-6.508-5.717l18.766-18.664l6.103,6.12L397.919,147.536z"/>
	<path style="fill:#3C3A41;" d="M255.95,217.896c-4.61,0-8.348,3.738-8.348,8.348v75.89c0,3.376,2.032,6.419,5.15,7.711
		c1.034,0.429,2.119,0.637,3.196,0.637c2.17,0,4.304-0.847,5.9-2.441l35.741-35.69c3.262-3.258,3.267-8.543,0.009-11.805
		c-3.258-3.263-8.544-3.267-11.805-0.009l-21.495,21.464v-55.757C264.298,221.634,260.56,217.896,255.95,217.896z"/>
</g>
</svg>